<svg fill="#000000" xmlns="http://www.w3.org/2000/svg" viewBox="0 0 80 80" width="15px" height="15px"><path fill="none" stroke="#000000" stroke-miterlimit="10" stroke-width="2" d="M65.547 14.7L30.332 49.916 14.908 34.773 7 42.749 29.853 65.3 73 22.154z"/><path d="M42 43A1 1 0 1 0 42 45 1 1 0 1 0 42 43zM39 46A1 1 0 1 0 39 48 1 1 0 1 0 39 46zM36 49A1 1 0 1 0 36 51 1 1 0 1 0 36 49zM33 52A1 1 0 1 0 33 54 1 1 0 1 0 33 52zM45 40A1 1 0 1 0 45 42 1 1 0 1 0 45 40zM48 37A1 1 0 1 0 48 39 1 1 0 1 0 48 37zM51 34A1 1 0 1 0 51 36 1 1 0 1 0 51 34zM54 31A1 1 0 1 0 54 33 1 1 0 1 0 54 31zM57 28A1 1 0 1 0 57 30 1 1 0 1 0 57 28zM60 25A1 1 0 1 0 60 27 1 1 0 1 0 60 25zM63 22A1 1 0 1 0 63 24 1 1 0 1 0 63 22zM66 19A1 1 0 1 0 66 21 1 1 0 1 0 66 19zM15 40A1 1 0 1 0 15 42 1 1 0 1 0 15 40zM18 43A1 1 0 1 0 18 45 1 1 0 1 0 18 43zM21 46A1 1 0 1 0 21 48 1 1 0 1 0 21 46zM24 49A1 1 0 1 0 24 51 1 1 0 1 0 24 49zM27 52A1 1 0 1 0 27 54 1 1 0 1 0 27 52zM30 55A1 1 0 1 0 30 57 1 1 0 1 0 30 55z"/></svg>