<?xml version="1.0" encoding="UTF-8"?>
<svg xmlns="http://www.w3.org/2000/svg" xmlns:xlink="http://www.w3.org/1999/xlink" width="11pt" height="11pt" viewBox="0 0 11 11" version="1.1">
<g id="surface23312716">
<path style="fill-rule:nonzero;fill:rgb(26.666667%,29.411765%,32.941176%);fill-opacity:1;stroke-width:10;stroke-linecap:butt;stroke-linejoin:round;stroke:rgb(80%,80%,80%);stroke-opacity:1;stroke-miterlimit:10;" d="M 119.587266 170.681408 L 65.834672 170.681408 C 63.565262 170.681408 61.814575 168.93072 61.814575 166.59647 C 61.814575 164.32706 63.565262 162.576373 65.834672 162.576373 L 119.587266 162.576373 C 121.856676 162.576373 123.607363 164.32706 123.607363 166.59647 C 123.607363 168.93072 121.856676 170.681408 119.587266 170.681408 Z M 143.772691 166.59647 C 143.772691 168.86588 141.957163 170.681408 139.752594 170.681408 C 137.548024 170.681408 135.732496 168.86588 135.732496 166.59647 C 135.732496 164.391901 137.548024 162.576373 139.752594 162.576373 C 141.957163 162.576373 143.772691 164.391901 143.772691 166.59647 Z M 143.772691 166.59647 " transform="matrix(0.0602442,0,0,0.0602442,0.319,0.319)"/>
<path style="fill-rule:nonzero;fill:rgb(100%,100%,100%);fill-opacity:1;stroke-width:10;stroke-linecap:butt;stroke-linejoin:round;stroke:rgb(80%,80%,80%);stroke-opacity:1;stroke-miterlimit:10;" d="M 113.816481 52.542415 L 63.694943 139.104191 C 59.545165 146.366302 53.77438 152.526129 46.77163 157.064949 L 32.247406 166.59647 L 33.349691 149.284115 C 33.868413 140.984559 36.267504 132.879524 40.417282 125.617412 L 90.53882 39.120476 " transform="matrix(0.0602442,0,0,0.0602442,0.319,0.319)"/>
<path style="fill-rule:nonzero;fill:rgb(100%,100%,100%);fill-opacity:1;stroke-width:10;stroke-linecap:butt;stroke-linejoin:round;stroke:rgb(80%,80%,80%);stroke-opacity:1;stroke-miterlimit:10;" d="M 81.136979 59.285804 C 80.488576 59.285804 79.840173 59.156123 79.12693 58.702241 C 77.246562 57.664797 76.598159 55.071186 77.700444 53.190817 L 87.102285 37.110428 C 88.139729 35.230059 90.733341 34.516816 92.613709 35.619101 C 94.494077 36.656546 95.14248 39.250157 94.040195 41.130525 L 84.638354 57.275755 C 83.860271 58.44288 82.498625 59.285804 81.136979 59.285804 Z M 104.41464 72.707742 C 103.766237 72.707742 103.052994 72.578062 102.404591 72.18902 C 100.524223 71.086735 99.81098 68.557964 100.913265 66.677596 L 110.315106 50.532366 C 111.41739 48.651998 113.946161 48.003595 115.82653 49.041039 C 117.706898 50.143324 118.355301 52.672095 117.317856 54.552463 L 107.916015 70.697693 C 107.073092 71.864819 105.776286 72.707742 104.41464 72.707742 Z M 104.41464 72.707742 " transform="matrix(0.0602442,0,0,0.0602442,0.319,0.319)"/>
<path style="fill-rule:nonzero;fill:rgb(98.823529%,79.215686%,23.921569%);fill-opacity:1;stroke-width:10;stroke-linecap:butt;stroke-linejoin:round;stroke:rgb(80%,80%,80%);stroke-opacity:1;stroke-miterlimit:10;" d="M 63.435582 127.3681 C 62.722339 127.3681 62.073936 127.238419 61.425533 126.849378 C 59.545165 125.747093 58.831922 123.218322 59.934207 121.337954 L 93.521473 63.04654 C 94.623757 61.166172 97.022848 60.58261 99.032897 61.555214 C 106.554369 65.18627 106.554369 65.18627 106.554369 65.18627 L 67.066638 125.487732 C 66.223714 126.849378 64.797228 127.3681 63.435582 127.3681 Z M 63.435582 127.3681 " transform="matrix(0.0602442,0,0,0.0602442,0.319,0.319)"/>
<path style="fill-rule:nonzero;fill:rgb(26.666667%,29.411765%,32.941176%);fill-opacity:1;stroke-width:10;stroke-linecap:butt;stroke-linejoin:round;stroke:rgb(80%,80%,80%);stroke-opacity:1;stroke-miterlimit:10;" d="M 32.247406 170.681408 C 31.599004 170.681408 30.88576 170.551727 30.237358 170.097845 C 28.875712 169.319762 28.097628 167.958116 28.227309 166.337109 L 29.264753 149.024754 C 29.848316 140.141635 32.506768 131.258517 36.980747 123.607363 L 77.700444 53.190817 C 78.737888 51.310449 81.266659 50.662046 83.147028 51.764331 C 85.027396 52.801776 85.740639 55.330547 84.638354 57.275755 L 43.918657 127.627461 C 40.02824 134.24117 37.888511 141.892323 37.369789 149.543476 L 36.851066 158.815636 L 44.6319 153.693254 C 51.051088 149.543476 56.432831 143.772691 60.323248 137.094142 L 101.042945 66.677596 C 102.14523 64.797228 104.674001 64.083985 106.554369 65.18627 C 108.434738 66.223714 109.08314 68.817325 108.045696 70.697693 L 67.196318 141.11424 C 62.722339 148.895073 56.432831 155.443942 49.041039 160.436644 L 34.516816 169.968165 C 33.868413 170.357207 33.02549 170.681408 32.247406 170.681408 Z M 32.247406 170.681408 " transform="matrix(0.0602442,0,0,0.0602442,0.319,0.319)"/>
<path style="fill-rule:nonzero;fill:rgb(100%,33.333333%,46.27451%);fill-opacity:1;stroke-width:10;stroke-linecap:butt;stroke-linejoin:round;stroke:rgb(80%,80%,80%);stroke-opacity:1;stroke-miterlimit:10;" d="M 117.836578 49.300401 C 117.188176 49.300401 116.474932 49.17072 115.82653 48.781678 C 113.946161 47.679393 113.297759 45.150622 114.335203 43.270254 C 115.567169 41.130525 115.95621 38.536914 115.307807 36.137823 C 114.594564 33.738733 113.168078 31.728684 110.833828 30.496719 C 108.694099 29.264753 106.165328 28.875712 103.766237 29.588955 C 101.302307 30.237358 99.292258 31.728684 97.930612 33.998094 C 96.893167 35.878462 94.299556 36.526865 92.419188 35.48942 C 90.53882 34.387136 89.890417 31.858365 90.992702 29.977997 C 95.790883 21.6136 106.554369 18.825468 114.918766 23.493968 C 118.938863 25.828218 121.856676 29.588955 123.088641 34.127775 C 124.320607 38.731435 123.607363 43.399935 121.337954 47.420032 C 120.55987 48.651998 119.198224 49.300401 117.836578 49.300401 Z M 117.836578 49.300401 " transform="matrix(0.0602442,0,0,0.0602442,0.319,0.319)"/>
<path style="fill-rule:nonzero;fill:rgb(100%,33.333333%,46.27451%);fill-opacity:1;stroke-width:10;stroke-linecap:butt;stroke-linejoin:round;stroke:rgb(80%,80%,80%);stroke-opacity:1;stroke-miterlimit:10;" d="M 112.714196 54.033741 L 89.501375 40.611803 L 94.494077 31.858365 C 98.254813 25.374337 106.424689 23.104927 112.843877 26.865663 C 119.327905 30.626399 121.597315 38.861115 117.836578 45.280303 Z M 112.714196 54.033741 " transform="matrix(0.0602442,0,0,0.0602442,0.319,0.319)"/>
<path style="fill-rule:nonzero;fill:rgb(100%,33.333333%,46.27451%);fill-opacity:1;stroke-width:10;stroke-linecap:butt;stroke-linejoin:round;stroke:rgb(80%,80%,80%);stroke-opacity:1;stroke-miterlimit:10;" d="M 112.714196 58.053839 C 112.065793 58.053839 111.41739 57.924158 110.704147 57.535116 L 87.491326 44.048338 C 86.518722 43.529615 85.870319 42.621851 85.610958 41.649247 C 85.351597 40.611803 85.481278 39.509518 86 38.536914 L 90.992702 29.848316 C 95.790883 21.48392 106.554369 18.695787 114.918766 23.364288 C 118.938863 25.633698 121.856676 29.459274 123.088641 33.998094 C 124.320607 38.536914 123.607363 43.270254 121.337954 47.290352 L 116.345252 56.04379 C 115.82653 56.951554 114.918766 57.664797 113.946161 57.924158 C 113.427439 58.053839 113.168078 58.053839 112.714196 58.053839 Z M 95.012799 39.120476 L 111.28771 48.522317 L 114.205523 43.270254 C 115.437488 41.130525 115.82653 38.536914 115.178127 36.137823 C 114.464884 33.738733 113.038398 31.728684 110.704147 30.496719 C 106.295008 27.967948 100.524223 29.459274 97.800931 33.998094 Z M 95.012799 39.120476 " transform="matrix(0.0602442,0,0,0.0602442,0.319,0.319)"/>
<path style="fill-rule:nonzero;fill:rgb(82.745098%,18.431373%,33.72549%);fill-opacity:1;stroke-width:10;stroke-linecap:butt;stroke-linejoin:round;stroke:rgb(80%,80%,80%);stroke-opacity:1;stroke-miterlimit:10;" d="M 112.714196 58.053839 C 112.065793 58.053839 111.41739 57.924158 110.704147 57.535116 C 108.823779 56.432831 108.175376 53.904061 109.277661 52.023692 L 114.205523 43.270254 C 115.567169 40.871164 115.82653 37.888511 114.918766 35.230059 C 114.075842 33.02549 115.178127 30.75608 117.317856 29.977997 C 119.457585 29.135073 121.726995 30.237358 122.569919 32.377087 C 124.450287 37.369789 123.866725 42.751532 121.337954 47.290352 L 116.345252 56.04379 C 115.567169 57.405436 114.205523 58.053839 112.714196 58.053839 Z M 112.714196 58.053839 " transform="matrix(0.0602442,0,0,0.0602442,0.319,0.319)"/>
<path style=" stroke:none;fill-rule:nonzero;fill:rgb(26.666667%,29.411765%,32.941176%);fill-opacity:1;" d="M 7.523438 10.601562 L 4.285156 10.601562 C 4.148438 10.601562 4.042969 10.496094 4.042969 10.355469 C 4.042969 10.21875 4.148438 10.113281 4.285156 10.113281 L 7.523438 10.113281 C 7.660156 10.113281 7.765625 10.21875 7.765625 10.355469 C 7.765625 10.496094 7.660156 10.601562 7.523438 10.601562 Z M 8.738281 10.113281 C 8.605469 10.113281 8.496094 10.222656 8.496094 10.355469 C 8.496094 10.492188 8.605469 10.601562 8.738281 10.601562 C 8.871094 10.601562 8.980469 10.492188 8.980469 10.355469 C 8.980469 10.222656 8.871094 10.113281 8.738281 10.113281 Z M 8.738281 10.113281 "/>
<path style=" stroke:none;fill-rule:nonzero;fill:rgb(100%,100%,100%);fill-opacity:1;" d="M 7.175781 3.484375 L 4.15625 8.699219 C 3.90625 9.136719 3.558594 9.507812 3.136719 9.78125 L 2.261719 10.355469 L 2.328125 9.3125 C 2.359375 8.8125 2.503906 8.324219 2.753906 7.886719 L 5.773438 2.675781 "/>
<path style=" stroke:none;fill-rule:nonzero;fill:rgb(100%,100%,100%);fill-opacity:1;" d="M 5.207031 3.890625 C 5.167969 3.890625 5.128906 3.882812 5.085938 3.855469 C 4.972656 3.792969 4.933594 3.636719 5 3.523438 L 5.566406 2.554688 C 5.628906 2.441406 5.785156 2.398438 5.898438 2.464844 C 6.011719 2.527344 6.050781 2.683594 5.984375 2.796875 L 5.417969 3.769531 C 5.371094 3.839844 5.289062 3.890625 5.207031 3.890625 Z M 6.609375 4.699219 C 6.570312 4.699219 6.527344 4.691406 6.488281 4.667969 C 6.375 4.601562 6.332031 4.449219 6.398438 4.335938 L 6.964844 3.363281 C 7.03125 3.25 7.183594 3.210938 7.296875 3.273438 C 7.410156 3.339844 7.449219 3.492188 7.386719 3.605469 L 6.820312 4.578125 C 6.769531 4.648438 6.691406 4.699219 6.609375 4.699219 Z M 6.609375 4.699219 "/>
<path style=" stroke:none;fill-rule:nonzero;fill:rgb(80%,80%,80%);fill-opacity:1;" d="M 4.140625 7.992188 C 4.097656 7.992188 4.058594 7.984375 4.019531 7.960938 C 3.90625 7.894531 3.863281 7.742188 3.929688 7.628906 L 5.953125 4.117188 C 6.019531 4.003906 6.164062 3.96875 6.285156 4.027344 C 6.738281 4.246094 6.738281 4.246094 6.738281 4.246094 L 4.359375 7.878906 C 4.308594 7.960938 4.222656 7.992188 4.140625 7.992188 Z M 4.140625 7.992188 "/>
<path style=" stroke:none;fill-rule:nonzero;fill:rgb(26.666667%,29.411765%,32.941176%);fill-opacity:1;" d="M 2.261719 10.601562 C 2.222656 10.601562 2.179688 10.59375 2.140625 10.566406 C 2.058594 10.519531 2.011719 10.4375 2.019531 10.339844 L 2.082031 9.296875 C 2.117188 8.761719 2.277344 8.226562 2.546875 7.765625 L 5 3.523438 C 5.0625 3.410156 5.214844 3.371094 5.328125 3.4375 C 5.441406 3.5 5.484375 3.652344 5.417969 3.769531 L 2.964844 8.007812 C 2.730469 8.40625 2.601562 8.867188 2.570312 9.328125 L 2.539062 9.886719 L 3.007812 9.578125 C 3.394531 9.328125 3.71875 8.980469 3.953125 8.578125 L 6.40625 4.335938 C 6.472656 4.222656 6.625 4.179688 6.738281 4.246094 C 6.851562 4.308594 6.890625 4.464844 6.828125 4.578125 L 4.367188 8.820312 C 4.097656 9.289062 3.71875 9.683594 3.273438 9.984375 L 2.398438 10.558594 C 2.359375 10.582031 2.308594 10.601562 2.261719 10.601562 Z M 2.261719 10.601562 "/>
<path style=" stroke:none;fill-rule:nonzero;fill:rgb(35.294118%,35.294118%,35.294118%);fill-opacity:1;" d="M 7.417969 3.289062 C 7.378906 3.289062 7.335938 3.28125 7.296875 3.257812 C 7.183594 3.191406 7.144531 3.039062 7.207031 2.925781 C 7.28125 2.796875 7.304688 2.640625 7.265625 2.496094 C 7.222656 2.351562 7.136719 2.230469 6.996094 2.15625 C 6.867188 2.082031 6.714844 2.058594 6.570312 2.101562 C 6.421875 2.140625 6.300781 2.230469 6.21875 2.367188 C 6.15625 2.480469 6 2.519531 5.886719 2.457031 C 5.773438 2.390625 5.734375 2.238281 5.800781 2.125 C 6.089844 1.621094 6.738281 1.453125 7.242188 1.734375 C 7.484375 1.875 7.660156 2.101562 7.734375 2.375 C 7.808594 2.652344 7.765625 2.933594 7.628906 3.175781 C 7.582031 3.25 7.5 3.289062 7.417969 3.289062 Z M 7.417969 3.289062 "/>
<path style=" stroke:none;fill-rule:nonzero;fill:rgb(35.294118%,35.294118%,35.294118%);fill-opacity:1;" d="M 7.417969 3.046875 C 7.644531 2.660156 7.507812 2.164062 7.117188 1.9375 C 6.730469 1.710938 6.238281 1.847656 6.011719 2.238281 L 5.710938 2.765625 L 7.109375 3.574219 Z M 7.417969 3.046875 "/>
<path style=" stroke:none;fill-rule:nonzero;fill:rgb(35.294118%,35.294118%,35.294118%);fill-opacity:1;" d="M 7.109375 3.816406 C 7.070312 3.816406 7.03125 3.808594 6.988281 3.785156 L 5.589844 2.972656 C 5.53125 2.941406 5.492188 2.886719 5.476562 2.828125 C 5.460938 2.765625 5.46875 2.699219 5.5 2.640625 L 5.800781 2.117188 C 6.089844 1.613281 6.738281 1.445312 7.242188 1.726562 C 7.484375 1.863281 7.660156 2.09375 7.734375 2.367188 C 7.808594 2.640625 7.765625 2.925781 7.628906 3.167969 L 7.328125 3.695312 C 7.296875 3.75 7.242188 3.792969 7.183594 3.808594 C 7.152344 3.816406 7.136719 3.816406 7.109375 3.816406 Z M 6.042969 2.675781 L 7.023438 3.242188 L 7.199219 2.925781 C 7.273438 2.796875 7.296875 2.640625 7.257812 2.496094 C 7.214844 2.351562 7.128906 2.230469 6.988281 2.15625 C 6.722656 2.003906 6.375 2.09375 6.210938 2.367188 Z M 6.042969 2.675781 "/>
<path style=" stroke:none;fill-rule:nonzero;fill:rgb(0%,0%,0%);fill-opacity:1;" d="M 7.109375 3.816406 C 7.070312 3.816406 7.03125 3.808594 6.988281 3.785156 C 6.875 3.71875 6.835938 3.566406 6.902344 3.453125 L 7.199219 2.925781 C 7.28125 2.78125 7.296875 2.601562 7.242188 2.441406 C 7.191406 2.308594 7.257812 2.171875 7.386719 2.125 C 7.515625 2.074219 7.652344 2.140625 7.703125 2.269531 C 7.816406 2.570312 7.78125 2.894531 7.628906 3.167969 L 7.328125 3.695312 C 7.28125 3.777344 7.199219 3.816406 7.109375 3.816406 Z M 7.109375 3.816406 "/>
</g>
</svg>
